<?xml version="1.0" encoding="utf-8"?>
<!-- Generator: Adobe Illustrator 25.4.1, SVG Export Plug-In . SVG Version: 6.00 Build 0)  -->
<svg version="1.1" id="Layer_1" xmlns="http://www.w3.org/2000/svg" xmlns:xlink="http://www.w3.org/1999/xlink" x="0px" y="0px"
	 viewBox="0 0 198.4 198.4" style="enable-background:new 0 0 198.4 198.4;" xml:space="preserve">
<style type="text/css">
	.st0{fill:#FFFFFF;}
	.st1{fill:#3BBEE5;}
</style>
<path class="st0" d="M76.1,157.1c2.7,1.5,5.6,2.1,8.2,2.1c2.7,0,5.3-0.7,7.9-2.1c0.6-0.4,0.9-0.9,0.9-1.7l-0.1-94.8
	c0-4.7-1.3-9.1-3.6-13.1c-3.2-5.5-9.3-8.2-15.2-6.7c-2.4,0.6-4.2,1.8-5.5,3.6c-0.4,0.7-0.4,1.6,0,2.1l2,2.7c2.8,3.7,4.2,8.3,4.2,13
	L75,89.6c-1.9,1.2-3.2,3.3-3.2,5.7l0.1,23.1c0,1.2,0.9,1.9,2,1.9h1.4l0.1,35C75,156.1,75.5,156.7,76.1,157.1z"/>
<path class="st1" d="M-41.3,99.6c-1,0-1.7,0.8-1.7,1.7c0,1,0.8,1.7,1.7,1.7h2.5v5c0,1,0.8,1.7,1.7,1.7c1,0,1.7-0.8,1.7-1.7v-5h2.6
	c1,0,1.7-0.8,1.7-1.7c0-1-0.8-1.7-1.7-1.7h-2.6V36.1h2.6c1,0,1.7-0.8,1.7-1.7v-18c0-3.3-2.6-5.9-5.9-5.9c-3.3,0-5.9,2.6-5.9,5.9v18
	c0,1,0.8,1.7,1.7,1.7h2.5v63.4h-2.4v0.1H-41.3z M-39.7,32.7V16.4c0-1.4,1.2-2.6,2.6-2.6s2.6,1.2,2.6,2.6v16.3
	C-34.5,32.7-39.7,32.7-39.7,32.7z"/>
<path class="st1" d="M76.1,157.1c2.7,1.5,5.6,2.1,8.2,2.1c2.7,0,5.3-0.7,7.9-2.1c0.6-0.4,0.9-0.9,0.9-1.7l-0.1-94.8
	c0-4.7-1.3-9.1-3.6-13.1c-3.2-5.5-9.3-8.2-15.2-6.7c-2.4,0.6-4.2,1.8-5.5,3.6c-0.4,0.7-0.4,1.6,0,2.1l2,2.7c2.8,3.7,4.2,8.3,4.2,13
	L75,89.6c-1.9,1.2-3.2,3.3-3.2,5.7l0.1,23.1c0,1.2,0.9,1.9,2,1.9h1.4l0.1,35C75,156.1,75.5,156.7,76.1,157.1z M75.6,116.5l-0.1-21.1
	c0-1.6,1.4-2.9,2.9-2.9s2.9,1.4,2.9,2.9v14.1h-3.2c-1.2,0-1.9,0.9-1.9,2c0,1,0.9,1.9,2,1.9h3.2v3.2L75.6,116.5L75.6,116.5z
	 M73.9,47.1l-1-1.4c0.6-0.6,1.4-0.9,2.4-1.2c4.2-1.2,8.7,0.9,10.9,4.7c2,3.4,2.9,7.2,2.9,11.1v0.7l-8,9.8c-0.7,0.8-0.6,2,0.2,2.7
	c0.4,0.4,0.8,0.4,1.2,0.4c0.6,0,1.2-0.2,1.5-0.7l5.1-6v4.3l-8,9.6c-0.7,0.8-0.6,2,0.2,2.7c0.4,0.4,0.8,0.4,1.2,0.4
	c0.6,0,1.2-0.2,1.5-0.7l5.1-6l0.1,48.1l-8,9.7c-0.7,0.8-0.6,2,0.2,2.7c0.4,0.4,0.8,0.4,1.2,0.4c0.6,0,1.2-0.2,1.5-0.7l5.1-6
	l0.1,22.5c-3.3,1.6-6.7,1.6-10.3-0.1v-1.6l7.8-9.5c0.7-0.8,0.6-2-0.2-2.7c-0.8-0.7-2-0.6-2.7,0.2l-5,5.9l-0.1-26.2h4.5
	c1.2,0,1.9-0.9,1.9-2l-0.1-23.2c0.1-3.6-2.8-6.5-6.4-6.6V62.3C78.7,56.9,77,51.5,73.9,47.1z"/>
<path class="st1" d="M-79.4,94.8c-1,0-1.7,0.8-1.7,1.7c0,1,0.8,1.7,1.7,1.7h2.6v5c0,1,0.8,1.7,1.7,1.7c1,0,1.7-0.8,1.7-1.7v-5h2.5
	c1,0,1.7-0.8,1.7-1.7c0-1-0.8-1.7-1.7-1.7h-2.5V31.3h2.5c1,0,1.7-0.8,1.7-1.7v-18c0-3.3-2.6-5.9-5.9-5.9S-81,8.3-81,11.6v18
	c0,1,0.8,1.7,1.7,1.7h2.6v63.4L-79.4,94.8L-79.4,94.8z M-77.7,27.9V11.6c0-1.4,1.2-2.6,2.6-2.6s2.6,1.2,2.6,2.6v16.3H-77.7z"/>
<g>
	<path class="st0" d="M120.2,49.4l2-2.7c0.4-0.7,0.6-1.6,0-2.1c-1.2-1.8-2.9-3-5.5-3.7c-5.8-1.6-12,1.2-15.2,6.7
		c-2.3,4-3.6,8.5-3.6,13.1l-0.2,94.8c0,0.7,0.4,1.4,0.9,1.7c2.6,1.5,5.1,2.1,7.9,2.1c2.6,0,5.5-0.7,8.2-2.1c0.7-0.4,1-1,1-1.7
		l0.1-35h1.4c1.2,0,2-0.9,2-1.9l0.1-23c0-2.4-1.4-4.5-3.2-5.7l0.1-27.4C116,57.8,117.5,53.2,120.2,49.4z"/>
	<path class="st1" d="M120.3,49.5l2-2.7c0.4-0.7,0.6-1.6,0-2.1c-1.1-1.7-2.9-2.9-5.5-3.6c-5.8-1.6-12,1.2-15.2,6.7
		c-2.3,4-3.6,8.5-3.6,13.1l-0.2,94.8c0,0.7,0.4,1.4,0.9,1.7c2.6,1.5,5.1,2.1,7.9,2.1c2.6,0,5.5-0.7,8.2-2.1c0.7-0.4,1-1,1-1.7
		l0.1-35h1.4c1.2,0,2-0.9,2-1.9l0.1-23c0-2.4-1.4-4.5-3.2-5.7l0.1-27.4C116,57.9,117.5,53.4,120.3,49.5z M115.2,116.8h-5.8v-3.2h3.2
		c1.2,0,2-0.9,2-1.9c0-1-0.9-2-1.9-2h-3.2V95.6c0-1.6,1.4-2.9,2.9-2.9s2.9,1.4,2.9,2.9L115.2,116.8L115.2,116.8z M112.2,62.5
		l-0.1,26.3c-3.6,0.1-6.5,3.2-6.5,6.7l-0.1,23.1c0,1.2,0.9,2,1.9,2h4.5l-0.1,26.2l-5-5.9c-0.7-0.8-1.9-0.9-2.7-0.2
		c-0.8,0.7-0.9,1.9-0.2,2.7l7.8,9.5v1.6c-3.6,1.6-7.1,1.6-10.3,0.1l0.1-22.5l5.1,6c0.4,0.4,0.9,0.7,1.5,0.7c0.4,0,0.9-0.1,1.2-0.4
		c0.8-0.7,0.9-1.9,0.2-2.7l-8-9.7l0.1-48.1l5.1,6c0.4,0.4,0.9,0.7,1.5,0.7c0.4,0,0.9-0.1,1.2-0.4c0.8-0.7,0.9-1.9,0.2-2.7l-8-9.6
		v-4.3l5.1,6c0.4,0.4,0.9,0.7,1.5,0.7c0.4,0,0.9-0.1,1.2-0.4c0.8-0.7,0.9-1.9,0.2-2.7l-8-9.7v-0.7c0-4,1-7.9,3-11.1
		c2.3-4,6.7-5.9,10.9-4.7c0.9,0.2,1.7,0.6,2.4,1.2l-0.8,1.6C113.9,51.8,112.2,57.1,112.2,62.5z"/>
</g>
</svg>
