<?xml version="1.0" encoding="utf-8"?>
<!-- Generator: Adobe Illustrator 25.4.1, SVG Export Plug-In . SVG Version: 6.00 Build 0)  -->
<svg version="1.1" id="Layer_1" xmlns="http://www.w3.org/2000/svg" xmlns:xlink="http://www.w3.org/1999/xlink" x="0px" y="0px"
	 viewBox="0 0 24 24" style="enable-background:new 0 0 24 24;" xml:space="preserve">
<style type="text/css">
	.st0{fill:none;}
	.st1{fill:#FFFFFF;}
</style>
<path class="st0" d="M0,0h24v24H0V0z"/>
<path class="st1" d="M15,13V5c0-1.7-1.3-3-3-3S9,3.3,9,5v8c-1.2,0.9-2,2.4-2,4c0,2.8,2.2,5,5,5s5-2.2,5-5C17,15.4,16.2,13.9,15,13z
	 M11,5c0-0.6,0.4-1,1-1s1,0.4,1,1h-1v1h1v2h-1v1h1v2h-2V5z"/>
</svg>
