<?xml version="1.0" encoding="utf-8"?>
<!-- Generator: Adobe Illustrator 25.4.1, SVG Export Plug-In . SVG Version: 6.00 Build 0)  -->
<svg version="1.1" id="Layer_1" xmlns="http://www.w3.org/2000/svg" xmlns:xlink="http://www.w3.org/1999/xlink" x="0px" y="0px"
	 viewBox="0 0 24 24" style="enable-background:new 0 0 24 24;" xml:space="preserve">
<style type="text/css">
	.st0{fill:none;}
	.st1{fill:#FFFFFF;}
</style>
<path class="st0" d="M0,0h24v24H0V0z"/>
<path class="st1" d="M12,6c2.6,0,4.9,1.9,5.4,4.4l0.3,1.5l1.5,0.1c1.6,0.1,2.8,1.4,2.8,3c0,1.6-1.4,3-3,3H6c-2.2,0-4-1.8-4-4
	c0-2.1,1.5-3.8,3.6-4l1.1-0.1L7.1,9C8.1,7.1,9.9,6,12,6 M12,4C9.1,4,6.6,5.6,5.3,8C2.3,8.4,0,10.9,0,14c0,3.3,2.7,6,6,6h13
	c2.8,0,5-2.2,5-5c0-2.6-2-4.8-4.6-5C18.7,6.6,15.6,4,12,4z"/>
</svg>
