<?xml version="1.0" encoding="utf-8"?>
<!-- Generator: Adobe Illustrator 24.3.0, SVG Export Plug-In . SVG Version: 6.00 Build 0)  -->
<svg version="1.1" id="Layer_1" xmlns="http://www.w3.org/2000/svg" xmlns:xlink="http://www.w3.org/1999/xlink" x="0px" y="0px"
	 viewBox="0 0 283.5 85" style="enable-background:new 0 0 283.5 85;" xml:space="preserve">
<style type="text/css">
	.st0{fill:#3EBEE5;}
</style>
<g>
	<path class="st0" d="M126.7,58.9c0.3,0,0.6-0.1,0.9-0.4l5.6-5.6c0.5-0.5,0.5-1.3,0-1.7c-0.5-0.5-1.3-0.5-1.7,0l-5.6,5.6
		c-0.5,0.5-0.5,1.3,0,1.7C126,58.8,126.3,58.9,126.7,58.9z"/>
	<path class="st0" d="M151.1,34.5c0.3,0,0.6-0.1,0.9-0.4l5.6-5.6c0.5-0.5,0.5-1.3,0-1.7c-0.5-0.5-1.3-0.5-1.7,0l-5.6,5.6
		c-0.5,0.5-0.5,1.3,0,1.7C150.5,34.4,150.8,34.5,151.1,34.5z"/>
	<path class="st0" d="M152,51.3c-0.5-0.5-1.3-0.5-1.7,0c-0.5,0.5-0.5,1.3,0,1.7l5.6,5.6c0.2,0.2,0.6,0.4,0.9,0.4
		c0.3,0,0.6-0.1,0.9-0.4c0.5-0.5,0.5-1.3,0-1.7L152,51.3z"/>
	<path class="st0" d="M131.3,34.1c0.2,0.2,0.6,0.4,0.9,0.4c0.3,0,0.6-0.1,0.9-0.4c0.5-0.5,0.5-1.3,0-1.7l-5.6-5.6
		c-0.5-0.5-1.3-0.5-1.7,0c-0.5,0.5-0.5,1.3,0,1.7L131.3,34.1z"/>
	<path class="st0" d="M153.7,43.9h7.3c0.7,0,1.2-0.5,1.2-1.2c0-0.7-0.5-1.2-1.2-1.2h-7.3l3.9-3.9c0.5-0.5,0.5-1.3,0-1.7
		c-0.5-0.5-1.3-0.5-1.7,0l-5.6,5.6H147l2.1-4.6c0.2-0.5,0.1-1-0.3-1.4c-0.4-0.4-0.9-0.5-1.4-0.3l-4.6,2.1v-3.2l5.6-5.6
		c0.5-0.5,0.5-1.3,0-1.7c-0.5-0.5-1.3-0.5-1.7,0l-3.9,3.9v-7.3c0-0.7-0.5-1.2-1.2-1.2c-0.7,0-1.2,0.5-1.2,1.2v7.3l-3.9-3.9
		c-0.5-0.5-1.3-0.5-1.7,0c-0.5,0.5-0.5,1.3,0,1.7l5.6,5.6v3.2l-4.6-2.1c-0.5-0.2-1-0.1-1.4,0.3c-0.4,0.4-0.5,0.9-0.3,1.4l2.1,4.6
		H133l-5.6-5.6c-0.5-0.5-1.3-0.5-1.7,0c-0.5,0.5-0.5,1.3,0,1.7l3.9,3.9h-7.3c-0.7,0-1.2,0.5-1.2,1.2c0,0.7,0.5,1.2,1.2,1.2h7.3
		l-3.9,3.9c-0.5,0.5-0.5,1.3,0,1.7c0.2,0.2,0.6,0.4,0.9,0.4c0.3,0,0.6-0.1,0.9-0.4l5.6-5.6h3.3l-2.1,4.6c-0.2,0.5-0.1,1,0.2,1.4
		c0.2,0.2,0.5,0.4,0.9,0.4c0.2,0,0.3,0,0.5-0.1l4.6-2v3.3l-5.6,5.6c-0.5,0.5-0.5,1.3,0,1.7c0.5,0.5,1.3,0.5,1.7,0l3.9-3.9v7.3
		c0,0.7,0.5,1.2,1.2,1.2c0.7,0,1.2-0.5,1.2-1.2v-7.3l3.9,3.9c0.2,0.2,0.6,0.4,0.9,0.4c0.3,0,0.6-0.1,0.9-0.4c0.5-0.5,0.5-1.3,0-1.7
		l-5.6-5.6V48l4.6,2.1c0.5,0.2,1,0.1,1.4-0.2c0.4-0.4,0.5-0.9,0.3-1.4l-2.1-4.6h3.2l5.6,5.6c0.2,0.2,0.6,0.4,0.9,0.4
		c0.3,0,0.6-0.1,0.9-0.4c0.5-0.5,0.5-1.3,0-1.7L153.7,43.9z M140.4,45.4l-2.6,1.2l1.2-2.6h1.4V45.4z M140.4,41.5H139l-1.2-2.6
		l2.6,1.2V41.5z M142.9,45.3v-1.4h1.4l1.2,2.6L142.9,45.3z M144.3,41.5h-1.4v-1.4l2.6-1.2L144.3,41.5z"/>
</g>
<path class="st0" d="M74.8,41.5h-2.7l1.7-1.7c0.5-0.5,0.5-1.3,0-1.7c-0.5-0.5-1.3-0.5-1.7,0l-3.4,3.5h-2v-2L70,36
	c0.5-0.5,0.5-1.3,0-1.7c-0.5-0.5-1.3-0.5-1.7,0L66.6,36v-2.7c0-0.7-0.5-1.2-1.2-1.2c-0.7,0-1.2,0.5-1.2,1.2V36l-1.7-1.7
	c-0.5-0.5-1.3-0.5-1.7,0c-0.5,0.5-0.5,1.3,0,1.7l3.5,3.4v2h-2.1L58.7,38c-0.5-0.5-1.3-0.5-1.7,0c-0.5,0.5-0.5,1.3,0,1.7l1.7,1.7H56
	c-0.7,0-1.2,0.5-1.2,1.2c0,0.7,0.5,1.2,1.2,1.2h2.7l-1.7,1.7c-0.5,0.5-0.5,1.3,0,1.7c0.2,0.2,0.6,0.4,0.9,0.4c0.3,0,0.6-0.1,0.9-0.4
	l3.4-3.5h2v2l-3.5,3.4c-0.5,0.5-0.5,1.3,0,1.7c0.2,0.2,0.6,0.4,0.9,0.4c0.3,0,0.6-0.1,0.9-0.4l1.7-1.7v2.7c0,0.7,0.5,1.2,1.2,1.2
	c0.7,0,1.2-0.5,1.2-1.2v-2.7l1.7,1.7c0.5,0.5,1.3,0.5,1.7,0c0.5-0.5,0.5-1.3,0-1.7L66.6,46v-2.1h2l3.4,3.5c0.2,0.2,0.6,0.4,0.9,0.4
	c0.3,0,0.6-0.1,0.9-0.4c0.5-0.5,0.5-1.3,0-1.7l-1.7-1.7h2.7c0.7,0,1.2-0.5,1.2-1.2C76,42,75.4,41.5,74.8,41.5z"/>
<path class="st0" d="M233.7,45.4c0.3,0.6,1,0.9,1.6,0.6l1.8-0.8l-0.8,1.8c-0.3,0.6,0,1.3,0.6,1.6c0.2,0.1,0.3,0.1,0.5,0.1
	c0.5,0,0.9-0.3,1.1-0.7l1.1-2.4l1.1,2.4c0.2,0.5,0.7,0.7,1.1,0.7c0.2,0,0.3,0,0.5-0.1c0.6-0.3,0.9-1,0.6-1.6l-0.8-1.8l1.7,0.8
	c0.6,0.3,1.3,0,1.6-0.6c0.3-0.6,0-1.3-0.6-1.6l-2.4-1.1l2.3-1.1c0.6-0.3,0.9-1,0.6-1.6c-0.3-0.6-1-0.9-1.6-0.6l-1.8,0.8l0.8-1.7
	c0.3-0.6,0-1.3-0.6-1.6c-0.6-0.3-1.3,0-1.6,0.6l-1,2.3l-1-2.3c-0.3-0.6-1-0.9-1.6-0.6c-0.6,0.3-0.9,1-0.6,1.6l0.8,1.8l-1.8-0.8
	c-0.6-0.3-1.3,0-1.6,0.6c-0.3,0.6,0,1.3,0.6,1.6l2.3,1l-2.3,1C233.7,44,233.4,44.8,233.7,45.4z"/>
<path class="st0" d="M226,41.5h-2.7l1.7-1.7c0.5-0.5,0.5-1.3,0-1.7c-0.5-0.5-1.3-0.5-1.7,0l-3.4,3.5h-2v-2l3.5-3.4
	c0.5-0.5,0.5-1.3,0-1.7c-0.5-0.5-1.3-0.5-1.7,0l-1.7,1.7v-2.7c0-0.7-0.5-1.2-1.2-1.2c-0.7,0-1.2,0.5-1.2,1.2V36l-1.7-1.7
	c-0.5-0.5-1.3-0.5-1.7,0c-0.5,0.5-0.5,1.3,0,1.7l3.5,3.4v2h-2.1l-3.4-3.5c-0.5-0.5-1.3-0.5-1.7,0c-0.5,0.5-0.5,1.3,0,1.7l1.7,1.7
	h-2.7c-0.7,0-1.2,0.5-1.2,1.2c0,0.7,0.5,1.2,1.2,1.2h2.7l-1.7,1.7c-0.5,0.5-0.5,1.3,0,1.7c0.2,0.2,0.6,0.4,0.9,0.4
	c0.3,0,0.6-0.1,0.9-0.4l3.4-3.5h2v2l-3.5,3.4c-0.5,0.5-0.5,1.3,0,1.7c0.2,0.2,0.6,0.4,0.9,0.4c0.3,0,0.6-0.1,0.9-0.4l1.7-1.7v2.7
	c0,0.7,0.5,1.2,1.2,1.2c0.7,0,1.2-0.5,1.2-1.2v-2.7l1.7,1.7c0.5,0.5,1.3,0.5,1.7,0c0.5-0.5,0.5-1.3,0-1.7l-3.5-3.4v-2.1h2l3.4,3.5
	c0.2,0.2,0.6,0.4,0.9,0.4c0.3,0,0.6-0.1,0.9-0.4c0.5-0.5,0.5-1.3,0-1.7l-1.7-1.7h2.7c0.7,0,1.2-0.5,1.2-1.2
	C227.3,42,226.7,41.5,226,41.5z"/>
<path class="st0" d="M198.4,41.5H195l3.1-3.1c0.5-0.5,0.5-1.3,0-1.7c-0.5-0.5-1.3-0.5-1.7,0l-4.9,4.9h-1.3l2.7-5.9
	c0.2-0.5,0.1-1-0.3-1.4c-0.4-0.4-0.9-0.5-1.4-0.3l-5.9,2.7v-1.3l4.9-4.9c0.5-0.5,0.5-1.3,0-1.7c-0.5-0.5-1.3-0.5-1.7,0l-3.1,3.1
	v-4.2c0-0.7-0.5-1.2-1.2-1.2c-0.7,0-1.2,0.5-1.2,1.2v4.2l-3.1-3.1c-0.5-0.5-1.3-0.5-1.7,0c-0.5,0.5-0.5,1.3,0,1.7l4.9,4.9v1.3
	l-5.9-2.7c-0.5-0.2-1-0.1-1.4,0.3c-0.4,0.4-0.5,0.9-0.3,1.4l2.7,5.9h-1.4l-4.9-4.9c-0.5-0.5-1.3-0.5-1.7,0c-0.5,0.5-0.5,1.3,0,1.7
	l3.1,3.1h-4.2c-0.7,0-1.2,0.5-1.2,1.2c0,0.7,0.5,1.2,1.2,1.2h4.2l-3.1,3.1c-0.5,0.5-0.5,1.3,0,1.7c0.2,0.2,0.6,0.4,0.9,0.4
	c0.3,0,0.6-0.1,0.9-0.4l4.9-4.9h1.4l-2.7,5.9c-0.2,0.5-0.1,1,0.2,1.4c0.2,0.2,0.5,0.4,0.9,0.4c0.2,0,0.3,0,0.5-0.1l5.9-2.6v1.3
	l-4.9,4.9c-0.5,0.5-0.5,1.3,0,1.7c0.5,0.5,1.3,0.5,1.7,0l3.1-3.1v4.2c0,0.7,0.5,1.2,1.2,1.2c0.7,0,1.2-0.5,1.2-1.2v-4.2l3.1,3.1
	c0.2,0.2,0.6,0.4,0.9,0.4s0.6-0.1,0.9-0.4c0.5-0.5,0.5-1.3,0-1.7l-4.9-4.9v-1.4l5.9,2.7c0.5,0.2,1,0.1,1.4-0.2
	c0.4-0.4,0.5-0.9,0.3-1.4l-2.7-5.9h1.3l4.9,4.9c0.2,0.2,0.6,0.4,0.9,0.4c0.3,0,0.6-0.1,0.9-0.4c0.5-0.5,0.5-1.3,0-1.7l-3.1-3.1h3.4
	c0.7,0,1.2-0.5,1.2-1.2C199.7,42,199.1,41.5,198.4,41.5z M182.9,46.2l-4,1.8l1.8-4h2.2V46.2z M182.9,41.5h-2.2l-1.8-4l4,1.8V41.5z
	 M185.4,46.1v-2.1h2.2l1.8,4L185.4,46.1z M187.6,41.5h-2.2v-2.2l4-1.8L187.6,41.5z"/>
<path class="st0" d="M112.9,41.5h-3.4l3.1-3.1c0.5-0.5,0.5-1.3,0-1.7c-0.5-0.5-1.3-0.5-1.7,0l-4.9,4.9h-1.3l2.7-5.9
	c0.2-0.5,0.1-1-0.3-1.4c-0.4-0.4-0.9-0.5-1.4-0.3l-5.9,2.7v-1.3l4.9-4.9c0.5-0.5,0.5-1.3,0-1.7c-0.5-0.5-1.3-0.5-1.7,0l-3.1,3.1
	v-4.2c0-0.7-0.5-1.2-1.2-1.2c-0.7,0-1.2,0.5-1.2,1.2v4.2l-3.1-3.1c-0.5-0.5-1.3-0.5-1.7,0c-0.5,0.5-0.5,1.3,0,1.7l4.9,4.9v1.3
	l-5.9-2.7c-0.5-0.2-1-0.1-1.4,0.3c-0.4,0.4-0.5,0.9-0.3,1.4l2.7,5.9h-1.4l-4.9-4.9c-0.5-0.5-1.3-0.5-1.7,0c-0.5,0.5-0.5,1.3,0,1.7
	l3.1,3.1h-4.2c-0.7,0-1.2,0.5-1.2,1.2c0,0.7,0.5,1.2,1.2,1.2h4.2l-3.1,3.1c-0.5,0.5-0.5,1.3,0,1.7c0.2,0.2,0.6,0.4,0.9,0.4
	c0.3,0,0.6-0.1,0.9-0.4l4.9-4.9h1.4l-2.7,5.9c-0.2,0.5-0.1,1,0.2,1.4c0.2,0.2,0.5,0.4,0.9,0.4c0.2,0,0.3,0,0.5-0.1l5.9-2.6v1.3
	l-4.9,4.9c-0.5,0.5-0.5,1.3,0,1.7c0.5,0.5,1.3,0.5,1.7,0l3.1-3.1v4.2c0,0.7,0.5,1.2,1.2,1.2c0.7,0,1.2-0.5,1.2-1.2v-4.2l3.1,3.1
	c0.2,0.2,0.6,0.4,0.9,0.4c0.3,0,0.6-0.1,0.9-0.4c0.5-0.5,0.5-1.3,0-1.7l-4.9-4.9v-1.4l5.9,2.7c0.5,0.2,1,0.1,1.4-0.2
	c0.4-0.4,0.5-0.9,0.3-1.4l-2.7-5.9h1.3l4.9,4.9c0.2,0.2,0.6,0.4,0.9,0.4c0.3,0,0.6-0.1,0.9-0.4c0.5-0.5,0.5-1.3,0-1.7l-3.1-3.1h3.4
	c0.7,0,1.2-0.5,1.2-1.2C114.1,42,113.6,41.5,112.9,41.5z M97.4,46.2l-4,1.8l1.8-4h2.2V46.2z M97.4,41.5h-2.2l-1.8-4l4,1.8V41.5z
	 M99.8,46.1v-2.1h2.2l1.8,4L99.8,46.1z M102,41.5h-2.2v-2.2l4-1.8L102,41.5z"/>
<path class="st0" d="M36.8,45.4c0.3,0.6,1,0.9,1.6,0.6l1.8-0.8L39.4,47c-0.3,0.6,0,1.3,0.6,1.6c0.2,0.1,0.3,0.1,0.5,0.1
	c0.5,0,0.9-0.3,1.1-0.7l1.1-2.4l1.1,2.4c0.2,0.5,0.7,0.7,1.1,0.7c0.2,0,0.3,0,0.5-0.1c0.6-0.3,0.9-1,0.6-1.6l-0.8-1.8l1.7,0.8
	c0.6,0.3,1.3,0,1.6-0.6c0.3-0.6,0-1.3-0.6-1.6l-2.4-1.1l2.3-1.1c0.6-0.3,0.9-1,0.6-1.6c-0.3-0.6-1-0.9-1.6-0.6l-1.8,0.8l0.8-1.7
	c0.3-0.6,0-1.3-0.6-1.6c-0.6-0.3-1.3,0-1.6,0.6l-1,2.3l-1-2.3c-0.3-0.6-1-0.9-1.6-0.6c-0.6,0.3-0.9,1-0.6,1.6l0.8,1.8l-1.8-0.8
	c-0.6-0.3-1.3,0-1.6,0.6c-0.3,0.6,0,1.3,0.6,1.6l2.3,1l-2.3,1C36.8,44,36.5,44.8,36.8,45.4z"/>
</svg>
