<?xml version="1.0" encoding="utf-8"?>
<!-- Generator: Adobe Illustrator 25.4.1, SVG Export Plug-In . SVG Version: 6.00 Build 0)  -->
<svg version="1.1" id="Layer_1" xmlns="http://www.w3.org/2000/svg" xmlns:xlink="http://www.w3.org/1999/xlink" x="0px" y="0px"
	 viewBox="0 0 113.4 113.4" style="enable-background:new 0 0 113.4 113.4;" xml:space="preserve">
<style type="text/css">
	.st0{fill:#FFFFFF;}
</style>
<path class="st0" d="M60.9,96.3V84.7l7.3,7.3c2.2,2.2,5.6,2.2,7.3,0c2.2-2.2,2.2-5.6,0-7.3L60.4,70v-8.6h8.6l14.7,15.1
	c2.2,2.2,5.6,2.2,7.3,0c2.2-2.2,2.2-5.6,0-7.3l-7.3-7.3h11.6c3,0,5.2-2.2,5.2-5.2s-2.2-5.2-5.2-5.2H84.6l7.3-7.3
	c2.2-2.2,2.2-5.6,0-7.3c-2.2-2.2-5.6-2.2-7.3,0L69.9,51.9h-8.6v-9.1l15.1-14.7c2.2-2.2,2.2-5.6,0-7.3c-2.2-2.2-5.6-2.2-7.3,0
	l-7.3,7.3V16.6c0-3-2.2-5.2-5.2-5.2s-5.2,2.2-5.2,5.2v11.6l-7.3-7.3c-2.2-2.2-5.6-2.2-7.3,0c-0.9,0.9-1.7,2.6-1.7,3.9
	c0,1.3,0.4,2.6,1.7,3.9l15.1,14.7v8.6h-8.6L28.6,36.8c-2.2-2.2-5.6-2.2-7.3,0c-0.9,0.9-1.7,2.6-1.7,3.9c0,1.3,0.4,2.6,1.7,3.9
	l7.3,7.3H16.9c-3,0-5.2,2.2-5.2,5.2s2.2,5.2,5.2,5.2h11.6l-7.3,7.3c-2.2,2.2-2.2,5.6,0,7.3c2.2,2.2,5.6,2.2,7.3,0l14.7-15.1h9.1v8.6
	L37.2,85.1c-0.9,0.9-1.7,2.6-1.7,3.9c0,1.3,0.4,2.6,1.7,3.9c2.2,2.2,5.6,2.2,7.3,0l7.3-7.3v11.6c0,3,2.2,5.2,5.2,5.2
	C58.7,101.9,60.9,99.4,60.9,96.3z"/>
</svg>
