<?xml version="1.0" encoding="utf-8"?>
<!-- Generator: Adobe Illustrator 24.3.0, SVG Export Plug-In . SVG Version: 6.00 Build 0)  -->
<svg version="1.1" id="Layer_1" xmlns="http://www.w3.org/2000/svg" xmlns:xlink="http://www.w3.org/1999/xlink" x="0px" y="0px"
	 viewBox="0 0 198.4 198.4" style="enable-background:new 0 0 198.4 198.4;" xml:space="preserve">
<style type="text/css">
	.st0{fill:#3BBEE5;}
</style>
<g>
	<path class="st0" d="M57.1,141.1c-1,0-1.7,0.8-1.7,1.7c0,1,0.8,1.7,1.7,1.7h2.5v5c0,1,0.8,1.7,1.7,1.7c1,0,1.7-0.8,1.7-1.7v-5h2.6
		c1,0,1.7-0.8,1.7-1.7c0-1-0.8-1.7-1.7-1.7h-2.6V77.6h2.6c1,0,1.7-0.8,1.7-1.7V57.9c0-3.3-2.6-5.9-5.9-5.9c-3.3,0-5.9,2.6-5.9,5.9
		v18c0,1,0.8,1.7,1.7,1.7h2.5V141h-2.4V141.1z M58.7,74.2V57.9c0-1.4,1.2-2.6,2.6-2.6s2.6,1.2,2.6,2.6v16.3H58.7z"/>
	<path class="st0" d="M80.7,149.6c2.4,1.3,4.9,1.9,7.2,1.9c2.4,0,4.7-0.6,6.9-1.9c0.5-0.3,0.8-0.8,0.8-1.5V64.7
		c0-4.1-1.1-8-3.1-11.5c-2.8-4.8-8.2-7.2-13.4-5.9c-2.1,0.5-3.7,1.6-4.8,3.2c-0.4,0.6-0.4,1.4,0,1.9l1.7,2.4
		c2.4,3.3,3.7,7.3,3.7,11.4v24.1c-1.7,1-2.8,2.9-2.8,5v20.3c0,1,0.8,1.7,1.7,1.7h1.2v30.8C79.7,148.7,80.1,149.3,80.7,149.6z
		 M80.3,113.9V95.3c0-1.4,1.2-2.6,2.6-2.6s2.6,1.2,2.6,2.6v12.4h-2.8c-1,0-1.7,0.8-1.7,1.7s0.8,1.7,1.7,1.7h2.8v2.8L80.3,113.9
		L80.3,113.9z M78.8,52.8l-0.9-1.2c0.5-0.5,1.2-0.8,2.1-1c3.7-1,7.6,0.8,9.6,4.2c1.7,3,2.6,6.4,2.6,9.8v0.6l-7.1,8.5
		c-0.6,0.7-0.5,1.8,0.2,2.4c0.3,0.3,0.7,0.4,1.1,0.4c0.5,0,1-0.2,1.3-0.6l4.5-5.3v3.8l-7.1,8.4c-0.6,0.7-0.5,1.8,0.2,2.4
		c0.3,0.3,0.7,0.4,1.1,0.4c0.5,0,1-0.2,1.3-0.6l4.5-5.3V122l-7.1,8.5c-0.6,0.7-0.5,1.8,0.2,2.4c0.3,0.3,0.7,0.4,1.1,0.4
		c0.5,0,1-0.2,1.3-0.6l4.5-5.3v19.8c-2.9,1.4-5.9,1.4-9.1-0.1v-1.4l6.9-8.3c0.6-0.7,0.5-1.8-0.2-2.4c-0.7-0.6-1.8-0.5-2.4,0.2
		l-4.4,5.2v-23h4c1,0,1.7-0.8,1.7-1.7V95.3c0-3.2-2.5-5.8-5.7-5.9V66.2C83.1,61.4,81.6,56.7,78.8,52.8z"/>
	<path class="st0" d="M133,141.1c-1,0-1.7,0.8-1.7,1.7c0,1,0.8,1.7,1.7,1.7h2.6v5c0,1,0.8,1.7,1.7,1.7c1,0,1.7-0.8,1.7-1.7v-5h2.5
		c1,0,1.7-0.8,1.7-1.7c0-1-0.8-1.7-1.7-1.7h-2.5V77.6h2.5c1,0,1.7-0.8,1.7-1.7V57.9c0-3.3-2.6-5.9-5.9-5.9s-5.9,2.6-5.9,5.9v18
		c0,1,0.8,1.7,1.7,1.7h2.6V141H133V141.1z M134.7,74.2V57.9c0-1.4,1.2-2.6,2.6-2.6s2.6,1.2,2.6,2.6v16.3H134.7z"/>
	<path class="st0" d="M122.5,54.7l1.7-2.4c0.4-0.6,0.5-1.4,0-1.9c-1-1.5-2.6-2.6-4.8-3.2c-5.1-1.4-10.6,1.1-13.4,5.9
		c-2,3.5-3.1,7.5-3.1,11.5v83.4c0,0.6,0.3,1.2,0.8,1.5c2.3,1.3,4.5,1.9,6.9,1.9c2.3,0,4.8-0.6,7.2-1.9c0.6-0.3,0.9-0.9,0.9-1.5
		v-30.8h1.2c1,0,1.7-0.8,1.7-1.7V95.3c0-2.1-1.2-4-2.8-5V66.2C118.8,62.1,120.1,58.1,122.5,54.7z M118.2,113.9h-5.1v-2.8h2.8
		c1,0,1.7-0.8,1.7-1.7s-0.8-1.7-1.7-1.7h-2.8V95.3c0-1.4,1.2-2.6,2.6-2.6s2.6,1.2,2.6,2.6L118.2,113.9L118.2,113.9z M115.4,66.2
		v23.2c-3.2,0.1-5.7,2.8-5.7,5.9v20.3c0,1,0.8,1.7,1.7,1.7h4v23l-4.4-5.2c-0.6-0.7-1.7-0.8-2.4-0.2c-0.7,0.6-0.8,1.7-0.2,2.4
		l6.9,8.3v1.4c-3.2,1.4-6.2,1.4-9.1,0.1v-19.8l4.5,5.3c0.3,0.4,0.8,0.6,1.3,0.6c0.4,0,0.8-0.1,1.1-0.4c0.7-0.6,0.8-1.7,0.2-2.4
		l-7.1-8.5V79.6l4.5,5.3c0.3,0.4,0.8,0.6,1.3,0.6c0.4,0,0.8-0.1,1.1-0.4c0.7-0.6,0.8-1.7,0.2-2.4l-7.1-8.5v-3.8l4.5,5.3
		c0.3,0.4,0.8,0.6,1.3,0.6c0.4,0,0.8-0.1,1.1-0.4c0.7-0.6,0.8-1.7,0.2-2.4l-7.1-8.5v-0.6c0-3.5,0.9-6.9,2.6-9.8
		c2-3.5,5.9-5.2,9.6-4.2c0.8,0.2,1.5,0.5,2.1,1l-0.7,1.4C116.9,56.7,115.4,61.4,115.4,66.2z"/>
</g>
</svg>
