<?xml version="1.0" encoding="utf-8"?>
<!-- Generator: Adobe Illustrator 24.3.0, SVG Export Plug-In . SVG Version: 6.00 Build 0)  -->
<svg version="1.1" id="Layer_1" xmlns="http://www.w3.org/2000/svg" xmlns:xlink="http://www.w3.org/1999/xlink" x="0px" y="0px"
	 viewBox="0 0 198.4 198.4" style="enable-background:new 0 0 198.4 198.4;" xml:space="preserve">
<style type="text/css">
	.st0{fill:#3BBEE5;}
</style>
<g>
	<path class="st0" d="M155.2,146.7c0.3-0.5,0.5-1.1,0.3-1.7l-11.2-40.1c-0.2-0.8-1-1.4-1.9-1.4c-0.8,0-1.6,0.6-1.9,1.4l-5.4,19.4
		l-9.8-34.9c-0.2-0.8-1-1.4-1.9-1.4c-0.8,0-1.6,0.6-1.9,1.4l-10.1,35.7l-5.6-20.2c-0.2-0.8-1-1.4-1.9-1.4c-0.8,0-1.6,0.6-1.9,1.4
		l-8.5,30.2L83.2,97.3c-0.2-0.8-1-1.4-1.9-1.4c-0.8,0-1.6,0.6-1.9,1.4l-10,35.7l-7.9-28.3c-0.2-0.8-1-1.4-1.9-1.4
		c-0.8,0-1.6,0.6-1.9,1.4l-11.2,39.9c-0.1,0.6-0.1,1.2,0.3,1.7c0.3,0.5,0.9,0.8,1.5,0.8h9.2v6.1c0,1,0.8,1.9,1.9,1.9
		c1,0,1.9-0.8,1.9-1.9V147H71c0.6,0,1.2-0.3,1.5-0.8c0.3-0.5,0.5-1.1,0.3-1.7l-1.2-4.1h7.8v5c0,1,0.8,1.9,1.9,1.9
		c1,0,1.9-0.8,1.9-1.9v-5h9.1l-1.4,5.2c-0.1,0.6-0.1,1.2,0.3,1.7c0.3,0.5,0.9,0.8,1.5,0.8h9.4v5c0,1,0.8,1.9,1.9,1.9
		c1,0,1.9-0.8,1.9-1.9v-5h9.6c0.6,0,1.2-0.3,1.5-0.8c0.3-0.5,0.5-1.1,0.3-1.7l-1.2-4.2h5.2v6.5c0,1,0.8,1.9,1.9,1.9
		c1,0,1.9-0.8,1.9-1.9v-6.5h5l-1,3.6c-0.1,0.6-0.1,1.2,0.3,1.7c0.3,0.5,0.9,0.8,1.5,0.8h9.2v4.9c0,1,0.8,1.9,1.9,1.9
		c1,0,1.9-0.8,1.9-1.9v-4.9h9.4C154.2,147.5,154.8,147.2,155.2,146.7z M61.6,143.1v-4.6c0-1-0.8-1.9-1.9-1.9c-1,0-1.9,0.8-1.9,1.9
		v4.6h-6.6l8.7-30.9l4,14.2l-3.1,1.4c-1,0.4-1.4,1.6-1,2.5c0.3,0.7,1,1.1,1.7,1.1c0.3,0,0.6-0.1,0.8-0.1l2.6-1.2l3.6,12.9
		L61.6,143.1L61.6,143.1z M72.5,136.6l8.9-31.7l3.5,12.5l-4.5,2c-1,0.4-1.4,1.6-1,2.5c0.3,0.7,1,1.1,1.7,1.1c0.3,0,0.6-0.1,0.8-0.1
		l4.1-1.8l1.2,4.5l-6.5,2.9c-1,0.4-1.4,1.6-1,2.5c0.3,0.7,1,1.1,1.7,1.1c0.3,0,0.6-0.1,0.8-0.1l6-2.7l2.1,7.3L72.5,136.6L72.5,136.6
		z M105.9,144.2v-4.8c0-1-0.8-1.9-1.9-1.9c-1,0-1.9,0.8-1.9,1.9v4.8h-6.9l8.9-31.7l4.1,14.7l-3.2,1.4c-1,0.4-1.4,1.6-1,2.5
		c0.3,0.7,1,1.1,1.7,1.1c0.3,0,0.6-0.1,0.8-0.1l2.7-1.2l2.5,9v0.1l1.2,4.3L105.9,144.2L105.9,144.2z M115.1,137.6l-1.6-5.6
		c0.1-0.1,0.2-0.3,0.3-0.6l9.6-34.5l4.8,17l-5.9,2.6c-1,0.4-1.4,1.6-1,2.5c0.3,0.7,1,1.1,1.7,1.1c0.3,0,0.6-0.1,0.8-0.1l5.3-2.4
		l1.8,6.3l-8.3,3.7c-1,0.4-1.4,1.6-1,2.5c0.3,0.7,1,1.1,1.7,1.1c0.3,0,0.6-0.1,0.8-0.1l7.7-3.4l2.8,9.8L115.1,137.6L115.1,137.6z
		 M133.6,143.6l0.6-2.2h3.1c0.6,0,1.2-0.3,1.5-0.8c0.3-0.5,0.5-1.1,0.3-1.7l-2.1-7.7c0.1-0.1,0.1-0.2,0.1-0.3l5.2-18.4l3.4,12.2
		l-4.4,2c-1,0.4-1.4,1.6-1,2.5c0.3,0.7,1,1.1,1.7,1.1c0.3,0,0.6-0.1,0.8-0.1l3.9-1.7l1.2,4.4l-6.4,2.8c-1,0.4-1.4,1.6-1,2.5
		c0.3,0.7,1,1.1,1.7,1.1c0.3,0,0.6-0.1,0.8-0.1l5.9-2.6l2,7.1h-17.4V143.6z"/>
	<path class="st0" d="M45.9,94l16.4-16.9l3.6,5.3c0.6,0.8,1.7,1.1,2.5,0.6l5.8-3.4l5.2,6.2c0.3,0.5,0.9,0.7,1.4,0.7
		c0.3,0,0.7-0.1,1-0.3l7-4.4c0.9-0.6,1.2-1.7,0.6-2.6c-0.6-0.9-1.7-1.2-2.6-0.6l-5.6,3.6l-5.2-6.2c-0.6-0.8-1.7-0.9-2.5-0.4
		l-5.6,3.4l-3-4.5l11-11.4l34.9,37.3c0.3,0.4,0.9,0.6,1.4,0.6c0.5,0,1-0.1,1.3-0.6c0.8-0.7,0.8-1.9,0.1-2.7L89.8,72l23.7-24l9.2,9.9
		l-3.6-0.1c-0.8,0-1.7,0.6-1.9,1.4l-2.1,7l-5.9-5.6c-0.6-0.6-1.4-0.7-2.2-0.3l-7,3.5c-1,0.5-1.3,1.7-0.8,2.5c0.5,1,1.7,1.3,2.5,0.8
		l5.8-2.9l7.2,6.9c0.3,0.3,0.8,0.6,1.3,0.6c0.1,0,0.3,0,0.5-0.1c0.6-0.1,1.2-0.7,1.4-1.3l2.6-8.7l5.9,0.1l25.1,26.9
		c0.3,0.4,0.9,0.6,1.4,0.6c0.5,0,1-0.1,1.3-0.5c0.8-0.7,0.8-1.9,0.1-2.7L137.3,68l3-3.1l12.1,12.2c0.3,0.3,0.9,0.6,1.4,0.6
		s1-0.2,1.4-0.6c0.8-0.8,0.8-1.9,0-2.7l-13.4-13.6c-0.3-0.3-0.8-0.6-1.4-0.6l0,0c-0.5,0-1,0.2-1.4,0.6l-4.2,4.3L115,44
		c-0.3-0.4-0.8-0.6-1.4-0.6c-0.5,0-1,0.2-1.4,0.6L87.2,69.2l-9.6-10.3c-0.3-0.4-0.8-0.6-1.4-0.6c-0.5,0-1,0.2-1.4,0.6L43.2,91.4
		c-0.8,0.8-0.7,2,0.1,2.7C44,94.8,45.2,94.8,45.9,94z"/>
</g>
</svg>
